<svg width="408" height="460" viewBox="0 0 408 460" fill="none" xmlns="http://www.w3.org/2000/svg">
<g clip-path="url(#clip0_6_2)">
<path d="M203.791 0L407.581 114.987V345.013L203.791 460L0 345.013V114.987L203.791 0Z" fill="white"/>
<path d="M371.194 337.081L210.531 427.747V357.147L310.636 302.202L371.194 337.081ZM382.2 327.153V137.574L323.432 171.456V293.324L382.2 327.153ZM35.7555 337.081L196.418 427.747V357.147L96.2608 302.202L35.7555 337.081ZM24.7498 327.153V137.574L83.5173 171.456V293.324L24.7498 327.153ZM31.6481 125.283L196.418 32.3056V100.541L90.8369 158.481L89.9944 158.954L31.6481 125.283ZM375.301 125.283L210.531 32.3056V100.541L316.113 158.429L316.955 158.901L375.301 125.283Z" fill="#8ED6FB"/>
<g clip-path="url(#clip1_6_2)">
<path d="M204 330C259.228 330 304 285.228 304 230C304 174.772 259.228 130 204 130C148.772 130 104 174.772 104 230C104 285.228 148.772 330 204 330Z" fill="#1C78C0"/>
<path d="M151.5 182.5L199 230L151.5 277.5M211.5 182.5L259 230L211.5 277.5" stroke="white" stroke-width="24"/>
</g>
</g>
<defs>
<clipPath id="clip0_6_2">
<rect width="407.581" height="460" fill="white"/>
</clipPath>
<clipPath id="clip1_6_2">
<rect width="200" height="200" fill="white" transform="translate(104 130)"/>
</clipPath>
</defs>
</svg>
